<svg width="139" height="121" viewBox="0 0 139 121" fill="none" xmlns="http://www.w3.org/2000/svg">
<path fill-rule="evenodd" clip-rule="evenodd" d="M138.529 26C138.529 33.8043 134.743 40.6595 129.033 44.565L122.353 77.1986H41.7552L44.6684 88.3657H121.382V96.6197H105.359C109.243 98.5618 112.157 102.932 112.157 107.787C112.157 115.07 106.816 120.896 99.5329 120.896C92.25 120.896 86.4236 115.07 86.4236 107.787C86.4236 102.932 89.3368 98.5618 93.221 96.6197H65.0605C68.9447 98.5618 71.8579 102.932 71.8579 107.787C71.8579 115.07 66.5171 120.896 59.2342 120.896C51.9513 120.896 46.125 115.07 46.125 107.787C46.125 102.932 49.0381 98.5618 52.9223 96.6197H38.3566L17.4789 8.25394H0V0H23.7908L27.675 15.5368H99.9917C103.46 8.6661 110.237 4 118.029 4C129.351 4 138.529 13.8497 138.529 26ZM97.5293 26C97.5293 25.4199 97.5502 24.8451 97.5913 24.2763H29.6171L40.2987 68.9447H116.526L120.659 47.8206C119.798 47.939 118.92 48 118.029 48C106.707 48 97.5293 38.1503 97.5293 26ZM58.7487 113.613C55.35 113.613 52.9223 111.185 52.9223 107.787C52.9223 104.388 55.35 101.96 58.7487 101.96C62.1473 101.96 64.575 104.388 64.575 107.787C64.575 111.185 62.1473 113.613 58.7487 113.613ZM99.0473 113.613C95.6486 113.613 93.221 111.185 93.221 107.787C93.221 104.388 95.6486 101.96 99.0473 101.96C102.446 101.96 104.874 104.388 104.874 107.787C104.874 111.185 101.96 113.613 99.0473 113.613ZM124.938 30.9139C125.332 29.5314 125.529 27.8985 125.529 26.015C125.529 24.1316 125.332 22.4986 124.938 21.1161C124.553 19.7336 124.024 18.5915 123.351 17.6899C122.678 16.7782 121.88 16.102 120.957 15.6612C120.044 15.2204 119.063 15 118.015 15C116.957 15 115.972 15.2204 115.058 15.6612C114.154 16.102 113.366 16.7782 112.693 17.6899C112.02 18.5915 111.491 19.7336 111.106 21.1161C110.722 22.4986 110.529 24.1316 110.529 26.015C110.529 27.8985 110.722 29.5314 111.106 30.9139C111.491 32.2864 112.02 33.4235 112.693 34.3251C113.366 35.2268 114.154 35.898 115.058 36.3388C115.972 36.7796 116.957 37 118.015 37C119.063 37 120.044 36.7796 120.957 36.3388C121.88 35.898 122.678 35.2268 123.351 34.3251C124.024 33.4235 124.553 32.2864 124.938 30.9139ZM122.457 21.8825C122.726 22.9945 122.861 24.372 122.861 26.015C122.861 27.658 122.726 29.0355 122.457 30.1475C122.198 31.2596 121.842 32.1562 121.39 32.8374C120.948 33.5187 120.433 34.0096 119.847 34.3101C119.26 34.6006 118.649 34.7459 118.015 34.7459C117.38 34.7459 116.77 34.6006 116.183 34.3101C115.597 34.0096 115.082 33.5187 114.64 32.8374C114.198 32.1562 113.842 31.2596 113.573 30.1475C113.313 29.0355 113.183 27.658 113.183 26.015C113.183 24.372 113.313 22.9945 113.573 21.8825C113.842 20.7605 114.198 19.8588 114.64 19.1776C115.082 18.4964 115.597 18.0105 116.183 17.7199C116.77 17.4194 117.38 17.2691 118.015 17.2691C118.649 17.2691 119.26 17.4194 119.847 17.7199C120.433 18.0105 120.948 18.4964 121.39 19.1776C121.842 19.8588 122.198 20.7605 122.457 21.8825Z" fill="#333333"/>
</svg>